# xmcd
# 
# Track frame offsets:
#     150
#     16518
#     30534
#     49016
#     61617
#     76053
#     94314
#     109182
#     124430
#     140605
#     159649
#     172820
#     187109
# 
# Disc length: 2716
# 
# Revision: 1
# Processed by: cddbd v1.5.2PL0 Copyright (c) Steve Scherf et al.
# Submitted via: fre:ac v1.0.17
# 
DISCID=a00a9a0d
DTITLE=Various Artist - Batidão Sertanejo CD 2
DYEAR=2009
DGENRE=Sertanejo
TTITLE0=Maria Cecília and Rodolfo - Coisas Esotéricas
TTITLE1=Jorge and Mateus - Mistérios
TTITLE2=Hugo and Tiago - O Amor de Antes
TTITLE3=João Paulo and Eduardo - Doida
TTITLE4=João Neto and Frederico - Filme de Amor
TTITLE5=Eduardo Costa - A Carta
TTITLE6=Hugo and Tiago - Virou Rotina
TTITLE7=Marco and Mário - Flecha do Cupido
TTITLE8=Tchê Garotos - Menininha
TTITLE9=Pedro Paulo and Mateus - Minta, Finja
TTITLE10=Marcos and Belutti - Perdoa Amor
TTITLE11=Roger and Robson - Apaixonado Adolescente
TTITLE12=Guilherme and Santiago - Só De Você
EXTD=
EXTT0=
EXTT1=
EXTT2=
EXTT3=
EXTT4=
EXTT5=
EXTT6=
EXTT7=
EXTT8=
EXTT9=
EXTT10=
EXTT11=
EXTT12=
PLAYORDER=
